<svg width="122" height="122" viewBox="0 0 122 122" fill="none" xmlns="http://www.w3.org/2000/svg">
<path d="M110.844 51.0437H106.749V50.8327H60.9994V71.166H89.7278C85.5366 83.0026 74.2745 91.4994 60.9994 91.4994C44.1557 91.4994 30.4994 77.843 30.4994 60.9994C30.4994 44.1557 44.1557 30.4994 60.9994 30.4994C68.7743 30.4994 75.8478 33.4324 81.2336 38.2235L95.6118 23.8453C86.5329 15.3841 74.3889 10.166 60.9994 10.166C32.9266 10.166 10.166 32.9266 10.166 60.9994C10.166 89.0721 32.9266 111.833 60.9994 111.833C89.0721 111.833 111.833 89.0721 111.833 60.9994C111.833 57.591 111.482 54.2639 110.844 51.0437Z" fill="#FFC107"/>
<path d="M16.0273 37.339L32.7286 49.5873C37.2477 38.3989 48.1921 30.4994 60.9996 30.4994C68.7745 30.4994 75.848 33.4324 81.2338 38.2235L95.612 23.8453C86.5331 15.3841 74.3891 10.166 60.9996 10.166C41.4745 10.166 24.5419 21.1892 16.0273 37.339Z" fill="#FF3D00"/>
<path d="M61.0005 111.834C74.1307 111.834 86.0613 106.809 95.0817 98.6378L79.3488 85.3245C74.0745 89.338 67.6281 91.5079 61.0005 91.5008C47.7787 91.5008 36.5522 83.0701 32.3228 71.3047L15.7461 84.0766C24.159 100.539 41.2441 111.834 61.0005 111.834Z" fill="#4CAF50"/>
<path d="M110.845 51.0449H106.75V50.834H61V71.1673H89.7285C87.7236 76.8007 84.1123 81.7233 79.3407 85.3269L79.3483 85.3219L95.0812 98.6351C93.968 99.6467 111.833 86.4173 111.833 61.0007C111.833 57.5923 111.483 54.2652 110.845 51.0449Z" fill="#1976D2"/>
</svg>
